G75*
%MOIN*%
%OFA0B0*%
%FSLAX24Y24*%
%IPPOS*%
%LPD*%
%AMOC8*
5,1,8,0,0,1.08239X$1,22.5*
%
%ADD10C,0.0000*%
%ADD11C,0.0050*%
%ADD12OC8,0.0660*%
%ADD13C,0.0650*%
%ADD14C,0.0520*%
%ADD15C,0.0740*%
%ADD16R,0.0740X0.0740*%
%ADD17C,0.0760*%
%ADD18C,0.0650*%
D10*
X001125Y004000D02*
X001125Y022996D01*
X016995Y022996D01*
X016995Y004000D01*
X001125Y004000D01*
X001495Y005000D02*
X001497Y005050D01*
X001503Y005100D01*
X001513Y005149D01*
X001527Y005197D01*
X001544Y005244D01*
X001565Y005289D01*
X001590Y005333D01*
X001618Y005374D01*
X001650Y005413D01*
X001684Y005450D01*
X001721Y005484D01*
X001761Y005514D01*
X001803Y005541D01*
X001847Y005565D01*
X001893Y005586D01*
X001940Y005602D01*
X001988Y005615D01*
X002038Y005624D01*
X002087Y005629D01*
X002138Y005630D01*
X002188Y005627D01*
X002237Y005620D01*
X002286Y005609D01*
X002334Y005594D01*
X002380Y005576D01*
X002425Y005554D01*
X002468Y005528D01*
X002509Y005499D01*
X002548Y005467D01*
X002584Y005432D01*
X002616Y005394D01*
X002646Y005354D01*
X002673Y005311D01*
X002696Y005267D01*
X002715Y005221D01*
X002731Y005173D01*
X002743Y005124D01*
X002751Y005075D01*
X002755Y005025D01*
X002755Y004975D01*
X002751Y004925D01*
X002743Y004876D01*
X002731Y004827D01*
X002715Y004779D01*
X002696Y004733D01*
X002673Y004689D01*
X002646Y004646D01*
X002616Y004606D01*
X002584Y004568D01*
X002548Y004533D01*
X002509Y004501D01*
X002468Y004472D01*
X002425Y004446D01*
X002380Y004424D01*
X002334Y004406D01*
X002286Y004391D01*
X002237Y004380D01*
X002188Y004373D01*
X002138Y004370D01*
X002087Y004371D01*
X002038Y004376D01*
X001988Y004385D01*
X001940Y004398D01*
X001893Y004414D01*
X001847Y004435D01*
X001803Y004459D01*
X001761Y004486D01*
X001721Y004516D01*
X001684Y004550D01*
X001650Y004587D01*
X001618Y004626D01*
X001590Y004667D01*
X001565Y004711D01*
X001544Y004756D01*
X001527Y004803D01*
X001513Y004851D01*
X001503Y004900D01*
X001497Y004950D01*
X001495Y005000D01*
X012389Y007000D02*
X012391Y007030D01*
X012397Y007060D01*
X012406Y007089D01*
X012419Y007116D01*
X012436Y007141D01*
X012455Y007164D01*
X012478Y007185D01*
X012503Y007202D01*
X012529Y007216D01*
X012558Y007226D01*
X012587Y007233D01*
X012617Y007236D01*
X012648Y007235D01*
X012678Y007230D01*
X012707Y007221D01*
X012734Y007209D01*
X012760Y007194D01*
X012784Y007175D01*
X012805Y007153D01*
X012823Y007129D01*
X012838Y007102D01*
X012849Y007074D01*
X012857Y007045D01*
X012861Y007015D01*
X012861Y006985D01*
X012857Y006955D01*
X012849Y006926D01*
X012838Y006898D01*
X012823Y006871D01*
X012805Y006847D01*
X012784Y006825D01*
X012760Y006806D01*
X012734Y006791D01*
X012707Y006779D01*
X012678Y006770D01*
X012648Y006765D01*
X012617Y006764D01*
X012587Y006767D01*
X012558Y006774D01*
X012529Y006784D01*
X012503Y006798D01*
X012478Y006815D01*
X012455Y006836D01*
X012436Y006859D01*
X012419Y006884D01*
X012406Y006911D01*
X012397Y006940D01*
X012391Y006970D01*
X012389Y007000D01*
X015495Y005000D02*
X015497Y005050D01*
X015503Y005100D01*
X015513Y005149D01*
X015527Y005197D01*
X015544Y005244D01*
X015565Y005289D01*
X015590Y005333D01*
X015618Y005374D01*
X015650Y005413D01*
X015684Y005450D01*
X015721Y005484D01*
X015761Y005514D01*
X015803Y005541D01*
X015847Y005565D01*
X015893Y005586D01*
X015940Y005602D01*
X015988Y005615D01*
X016038Y005624D01*
X016087Y005629D01*
X016138Y005630D01*
X016188Y005627D01*
X016237Y005620D01*
X016286Y005609D01*
X016334Y005594D01*
X016380Y005576D01*
X016425Y005554D01*
X016468Y005528D01*
X016509Y005499D01*
X016548Y005467D01*
X016584Y005432D01*
X016616Y005394D01*
X016646Y005354D01*
X016673Y005311D01*
X016696Y005267D01*
X016715Y005221D01*
X016731Y005173D01*
X016743Y005124D01*
X016751Y005075D01*
X016755Y005025D01*
X016755Y004975D01*
X016751Y004925D01*
X016743Y004876D01*
X016731Y004827D01*
X016715Y004779D01*
X016696Y004733D01*
X016673Y004689D01*
X016646Y004646D01*
X016616Y004606D01*
X016584Y004568D01*
X016548Y004533D01*
X016509Y004501D01*
X016468Y004472D01*
X016425Y004446D01*
X016380Y004424D01*
X016334Y004406D01*
X016286Y004391D01*
X016237Y004380D01*
X016188Y004373D01*
X016138Y004370D01*
X016087Y004371D01*
X016038Y004376D01*
X015988Y004385D01*
X015940Y004398D01*
X015893Y004414D01*
X015847Y004435D01*
X015803Y004459D01*
X015761Y004486D01*
X015721Y004516D01*
X015684Y004550D01*
X015650Y004587D01*
X015618Y004626D01*
X015590Y004667D01*
X015565Y004711D01*
X015544Y004756D01*
X015527Y004803D01*
X015513Y004851D01*
X015503Y004900D01*
X015497Y004950D01*
X015495Y005000D01*
X015495Y022000D02*
X015497Y022050D01*
X015503Y022100D01*
X015513Y022149D01*
X015527Y022197D01*
X015544Y022244D01*
X015565Y022289D01*
X015590Y022333D01*
X015618Y022374D01*
X015650Y022413D01*
X015684Y022450D01*
X015721Y022484D01*
X015761Y022514D01*
X015803Y022541D01*
X015847Y022565D01*
X015893Y022586D01*
X015940Y022602D01*
X015988Y022615D01*
X016038Y022624D01*
X016087Y022629D01*
X016138Y022630D01*
X016188Y022627D01*
X016237Y022620D01*
X016286Y022609D01*
X016334Y022594D01*
X016380Y022576D01*
X016425Y022554D01*
X016468Y022528D01*
X016509Y022499D01*
X016548Y022467D01*
X016584Y022432D01*
X016616Y022394D01*
X016646Y022354D01*
X016673Y022311D01*
X016696Y022267D01*
X016715Y022221D01*
X016731Y022173D01*
X016743Y022124D01*
X016751Y022075D01*
X016755Y022025D01*
X016755Y021975D01*
X016751Y021925D01*
X016743Y021876D01*
X016731Y021827D01*
X016715Y021779D01*
X016696Y021733D01*
X016673Y021689D01*
X016646Y021646D01*
X016616Y021606D01*
X016584Y021568D01*
X016548Y021533D01*
X016509Y021501D01*
X016468Y021472D01*
X016425Y021446D01*
X016380Y021424D01*
X016334Y021406D01*
X016286Y021391D01*
X016237Y021380D01*
X016188Y021373D01*
X016138Y021370D01*
X016087Y021371D01*
X016038Y021376D01*
X015988Y021385D01*
X015940Y021398D01*
X015893Y021414D01*
X015847Y021435D01*
X015803Y021459D01*
X015761Y021486D01*
X015721Y021516D01*
X015684Y021550D01*
X015650Y021587D01*
X015618Y021626D01*
X015590Y021667D01*
X015565Y021711D01*
X015544Y021756D01*
X015527Y021803D01*
X015513Y021851D01*
X015503Y021900D01*
X015497Y021950D01*
X015495Y022000D01*
X001495Y022000D02*
X001497Y022050D01*
X001503Y022100D01*
X001513Y022149D01*
X001527Y022197D01*
X001544Y022244D01*
X001565Y022289D01*
X001590Y022333D01*
X001618Y022374D01*
X001650Y022413D01*
X001684Y022450D01*
X001721Y022484D01*
X001761Y022514D01*
X001803Y022541D01*
X001847Y022565D01*
X001893Y022586D01*
X001940Y022602D01*
X001988Y022615D01*
X002038Y022624D01*
X002087Y022629D01*
X002138Y022630D01*
X002188Y022627D01*
X002237Y022620D01*
X002286Y022609D01*
X002334Y022594D01*
X002380Y022576D01*
X002425Y022554D01*
X002468Y022528D01*
X002509Y022499D01*
X002548Y022467D01*
X002584Y022432D01*
X002616Y022394D01*
X002646Y022354D01*
X002673Y022311D01*
X002696Y022267D01*
X002715Y022221D01*
X002731Y022173D01*
X002743Y022124D01*
X002751Y022075D01*
X002755Y022025D01*
X002755Y021975D01*
X002751Y021925D01*
X002743Y021876D01*
X002731Y021827D01*
X002715Y021779D01*
X002696Y021733D01*
X002673Y021689D01*
X002646Y021646D01*
X002616Y021606D01*
X002584Y021568D01*
X002548Y021533D01*
X002509Y021501D01*
X002468Y021472D01*
X002425Y021446D01*
X002380Y021424D01*
X002334Y021406D01*
X002286Y021391D01*
X002237Y021380D01*
X002188Y021373D01*
X002138Y021370D01*
X002087Y021371D01*
X002038Y021376D01*
X001988Y021385D01*
X001940Y021398D01*
X001893Y021414D01*
X001847Y021435D01*
X001803Y021459D01*
X001761Y021486D01*
X001721Y021516D01*
X001684Y021550D01*
X001650Y021587D01*
X001618Y021626D01*
X001590Y021667D01*
X001565Y021711D01*
X001544Y021756D01*
X001527Y021803D01*
X001513Y021851D01*
X001503Y021900D01*
X001497Y021950D01*
X001495Y022000D01*
X000495Y025000D02*
X000497Y025050D01*
X000503Y025100D01*
X000513Y025149D01*
X000527Y025197D01*
X000544Y025244D01*
X000565Y025289D01*
X000590Y025333D01*
X000618Y025374D01*
X000650Y025413D01*
X000684Y025450D01*
X000721Y025484D01*
X000761Y025514D01*
X000803Y025541D01*
X000847Y025565D01*
X000893Y025586D01*
X000940Y025602D01*
X000988Y025615D01*
X001038Y025624D01*
X001087Y025629D01*
X001138Y025630D01*
X001188Y025627D01*
X001237Y025620D01*
X001286Y025609D01*
X001334Y025594D01*
X001380Y025576D01*
X001425Y025554D01*
X001468Y025528D01*
X001509Y025499D01*
X001548Y025467D01*
X001584Y025432D01*
X001616Y025394D01*
X001646Y025354D01*
X001673Y025311D01*
X001696Y025267D01*
X001715Y025221D01*
X001731Y025173D01*
X001743Y025124D01*
X001751Y025075D01*
X001755Y025025D01*
X001755Y024975D01*
X001751Y024925D01*
X001743Y024876D01*
X001731Y024827D01*
X001715Y024779D01*
X001696Y024733D01*
X001673Y024689D01*
X001646Y024646D01*
X001616Y024606D01*
X001584Y024568D01*
X001548Y024533D01*
X001509Y024501D01*
X001468Y024472D01*
X001425Y024446D01*
X001380Y024424D01*
X001334Y024406D01*
X001286Y024391D01*
X001237Y024380D01*
X001188Y024373D01*
X001138Y024370D01*
X001087Y024371D01*
X001038Y024376D01*
X000988Y024385D01*
X000940Y024398D01*
X000893Y024414D01*
X000847Y024435D01*
X000803Y024459D01*
X000761Y024486D01*
X000721Y024516D01*
X000684Y024550D01*
X000650Y024587D01*
X000618Y024626D01*
X000590Y024667D01*
X000565Y024711D01*
X000544Y024756D01*
X000527Y024803D01*
X000513Y024851D01*
X000503Y024900D01*
X000497Y024950D01*
X000495Y025000D01*
X000495Y031000D02*
X000497Y031050D01*
X000503Y031100D01*
X000513Y031149D01*
X000527Y031197D01*
X000544Y031244D01*
X000565Y031289D01*
X000590Y031333D01*
X000618Y031374D01*
X000650Y031413D01*
X000684Y031450D01*
X000721Y031484D01*
X000761Y031514D01*
X000803Y031541D01*
X000847Y031565D01*
X000893Y031586D01*
X000940Y031602D01*
X000988Y031615D01*
X001038Y031624D01*
X001087Y031629D01*
X001138Y031630D01*
X001188Y031627D01*
X001237Y031620D01*
X001286Y031609D01*
X001334Y031594D01*
X001380Y031576D01*
X001425Y031554D01*
X001468Y031528D01*
X001509Y031499D01*
X001548Y031467D01*
X001584Y031432D01*
X001616Y031394D01*
X001646Y031354D01*
X001673Y031311D01*
X001696Y031267D01*
X001715Y031221D01*
X001731Y031173D01*
X001743Y031124D01*
X001751Y031075D01*
X001755Y031025D01*
X001755Y030975D01*
X001751Y030925D01*
X001743Y030876D01*
X001731Y030827D01*
X001715Y030779D01*
X001696Y030733D01*
X001673Y030689D01*
X001646Y030646D01*
X001616Y030606D01*
X001584Y030568D01*
X001548Y030533D01*
X001509Y030501D01*
X001468Y030472D01*
X001425Y030446D01*
X001380Y030424D01*
X001334Y030406D01*
X001286Y030391D01*
X001237Y030380D01*
X001188Y030373D01*
X001138Y030370D01*
X001087Y030371D01*
X001038Y030376D01*
X000988Y030385D01*
X000940Y030398D01*
X000893Y030414D01*
X000847Y030435D01*
X000803Y030459D01*
X000761Y030486D01*
X000721Y030516D01*
X000684Y030550D01*
X000650Y030587D01*
X000618Y030626D01*
X000590Y030667D01*
X000565Y030711D01*
X000544Y030756D01*
X000527Y030803D01*
X000513Y030851D01*
X000503Y030900D01*
X000497Y030950D01*
X000495Y031000D01*
X027995Y031000D02*
X027997Y031050D01*
X028003Y031100D01*
X028013Y031149D01*
X028027Y031197D01*
X028044Y031244D01*
X028065Y031289D01*
X028090Y031333D01*
X028118Y031374D01*
X028150Y031413D01*
X028184Y031450D01*
X028221Y031484D01*
X028261Y031514D01*
X028303Y031541D01*
X028347Y031565D01*
X028393Y031586D01*
X028440Y031602D01*
X028488Y031615D01*
X028538Y031624D01*
X028587Y031629D01*
X028638Y031630D01*
X028688Y031627D01*
X028737Y031620D01*
X028786Y031609D01*
X028834Y031594D01*
X028880Y031576D01*
X028925Y031554D01*
X028968Y031528D01*
X029009Y031499D01*
X029048Y031467D01*
X029084Y031432D01*
X029116Y031394D01*
X029146Y031354D01*
X029173Y031311D01*
X029196Y031267D01*
X029215Y031221D01*
X029231Y031173D01*
X029243Y031124D01*
X029251Y031075D01*
X029255Y031025D01*
X029255Y030975D01*
X029251Y030925D01*
X029243Y030876D01*
X029231Y030827D01*
X029215Y030779D01*
X029196Y030733D01*
X029173Y030689D01*
X029146Y030646D01*
X029116Y030606D01*
X029084Y030568D01*
X029048Y030533D01*
X029009Y030501D01*
X028968Y030472D01*
X028925Y030446D01*
X028880Y030424D01*
X028834Y030406D01*
X028786Y030391D01*
X028737Y030380D01*
X028688Y030373D01*
X028638Y030370D01*
X028587Y030371D01*
X028538Y030376D01*
X028488Y030385D01*
X028440Y030398D01*
X028393Y030414D01*
X028347Y030435D01*
X028303Y030459D01*
X028261Y030486D01*
X028221Y030516D01*
X028184Y030550D01*
X028150Y030587D01*
X028118Y030626D01*
X028090Y030667D01*
X028065Y030711D01*
X028044Y030756D01*
X028027Y030803D01*
X028013Y030851D01*
X028003Y030900D01*
X027997Y030950D01*
X027995Y031000D01*
X027995Y025000D02*
X027997Y025050D01*
X028003Y025100D01*
X028013Y025149D01*
X028027Y025197D01*
X028044Y025244D01*
X028065Y025289D01*
X028090Y025333D01*
X028118Y025374D01*
X028150Y025413D01*
X028184Y025450D01*
X028221Y025484D01*
X028261Y025514D01*
X028303Y025541D01*
X028347Y025565D01*
X028393Y025586D01*
X028440Y025602D01*
X028488Y025615D01*
X028538Y025624D01*
X028587Y025629D01*
X028638Y025630D01*
X028688Y025627D01*
X028737Y025620D01*
X028786Y025609D01*
X028834Y025594D01*
X028880Y025576D01*
X028925Y025554D01*
X028968Y025528D01*
X029009Y025499D01*
X029048Y025467D01*
X029084Y025432D01*
X029116Y025394D01*
X029146Y025354D01*
X029173Y025311D01*
X029196Y025267D01*
X029215Y025221D01*
X029231Y025173D01*
X029243Y025124D01*
X029251Y025075D01*
X029255Y025025D01*
X029255Y024975D01*
X029251Y024925D01*
X029243Y024876D01*
X029231Y024827D01*
X029215Y024779D01*
X029196Y024733D01*
X029173Y024689D01*
X029146Y024646D01*
X029116Y024606D01*
X029084Y024568D01*
X029048Y024533D01*
X029009Y024501D01*
X028968Y024472D01*
X028925Y024446D01*
X028880Y024424D01*
X028834Y024406D01*
X028786Y024391D01*
X028737Y024380D01*
X028688Y024373D01*
X028638Y024370D01*
X028587Y024371D01*
X028538Y024376D01*
X028488Y024385D01*
X028440Y024398D01*
X028393Y024414D01*
X028347Y024435D01*
X028303Y024459D01*
X028261Y024486D01*
X028221Y024516D01*
X028184Y024550D01*
X028150Y024587D01*
X028118Y024626D01*
X028090Y024667D01*
X028065Y024711D01*
X028044Y024756D01*
X028027Y024803D01*
X028013Y024851D01*
X028003Y024900D01*
X027997Y024950D01*
X027995Y025000D01*
D11*
X029625Y024000D02*
X029625Y032000D01*
X000125Y032000D01*
X000125Y024000D01*
X029625Y024000D01*
D12*
X015625Y010500D03*
X014625Y010500D03*
X010625Y008500D03*
X009625Y008500D03*
X007625Y008500D03*
X006625Y008500D03*
X004625Y008500D03*
X003625Y008500D03*
D13*
X002625Y008500D03*
X002625Y007500D03*
X005625Y007500D03*
X005625Y008500D03*
X008625Y008500D03*
X008625Y007500D03*
X013625Y009500D03*
X013625Y010500D03*
D14*
X010885Y016500D02*
X010365Y016500D01*
X010365Y017500D02*
X010885Y017500D01*
X010885Y018500D02*
X010365Y018500D01*
X010365Y019500D02*
X010885Y019500D01*
X010885Y020500D02*
X010365Y020500D01*
X010365Y021500D02*
X010885Y021500D01*
X010885Y022500D02*
X010365Y022500D01*
X007885Y022500D02*
X007365Y022500D01*
X007365Y021500D02*
X007885Y021500D01*
X007885Y020500D02*
X007365Y020500D01*
X007365Y019500D02*
X007885Y019500D01*
X007885Y018500D02*
X007365Y018500D01*
X007365Y017500D02*
X007885Y017500D01*
X007885Y016500D02*
X007365Y016500D01*
D15*
X003625Y013000D03*
X003625Y012000D03*
X005625Y010500D03*
X006625Y010500D03*
X007625Y010500D03*
X008625Y010500D03*
X009625Y010500D03*
X010625Y010500D03*
X011625Y010500D03*
X014625Y009000D03*
X015625Y009000D03*
X010625Y007000D03*
X009625Y007000D03*
X007625Y007000D03*
X006625Y007000D03*
X004625Y007000D03*
X003625Y007000D03*
X007625Y025500D03*
X008625Y025500D03*
X009625Y025500D03*
X010625Y025500D03*
X011625Y025500D03*
X012625Y025500D03*
X013625Y025500D03*
D16*
X014625Y025500D03*
X012625Y010500D03*
D17*
X012625Y008772D03*
X011897Y007984D03*
X013353Y007984D03*
X012625Y006055D03*
D18*
X016763Y029492D03*
X018625Y029492D03*
X020464Y029496D03*
X023763Y029492D03*
X025625Y029492D03*
X027464Y029496D03*
X013714Y029746D03*
X011875Y029742D03*
X010013Y029742D03*
X006964Y029496D03*
X005125Y029492D03*
X003263Y029492D03*
M02*
