%
M48
M72
T01C0.0276
T02C0.0320
T03C0.0394
T04C0.0400
T05C0.0433
T06C0.0472
T07C0.1260
%
T01
X2625Y7500
X2625Y8500
X5625Y8500
X5625Y7500
X8625Y7500
X8625Y8500
X13625Y9500
X13625Y10500
T02
X14625Y10500
X15625Y10500
X10625Y8500
X9625Y8500
X7625Y8500
X6625Y8500
X4625Y8500
X3625Y8500
X7625Y16500
X7625Y17500
X7625Y18500
X7625Y19500
X7625Y20500
X7625Y21500
X7625Y22500
X10625Y22500
X10625Y21500
X10625Y20500
X10625Y19500
X10625Y18500
X10625Y17500
X10625Y16500
T03
X12625Y6055
T04
X10625Y7000
X9625Y7000
X7625Y7000
X6625Y7000
X4625Y7000
X3625Y7000
X5625Y10500
X6625Y10500
X7625Y10500
X8625Y10500
X9625Y10500
X10625Y10500
X11625Y10500
X12625Y10500
X14625Y9000
X15625Y9000
X3625Y12000
X3625Y13000
X7625Y25500
X8625Y25500
X9625Y25500
X10625Y25500
X11625Y25500
X12625Y25500
X13625Y25500
X14625Y25500
T05
X16763Y29492
X18625Y29492
X20464Y29496
X23763Y29492
X25625Y29492
X27464Y29496
X13714Y29746
X11875Y29742
X10013Y29742
X6964Y29496
X5125Y29492
X3263Y29492
X12625Y8772
X11897Y7984
X13353Y7984
T06
X12625Y7000
T07
X2125Y5000
X16125Y5000
X16125Y22000
X28625Y25000
X28625Y31000
X2125Y22000
X1125Y25000
X1125Y31000
M30
