G75*
%MOIN*%
%OFA0B0*%
%FSLAX24Y24*%
%IPPOS*%
%LPD*%
%AMOC8*
5,1,8,0,0,1.08239X$1,22.5*
%
%ADD10C,0.0060*%
%ADD11C,0.0100*%
%ADD12C,0.0080*%
%ADD13C,0.0050*%
D10*
X003275Y008000D02*
X004975Y008000D01*
X004992Y008002D01*
X005009Y008006D01*
X005025Y008013D01*
X005039Y008023D01*
X005052Y008036D01*
X005062Y008050D01*
X005069Y008066D01*
X005073Y008083D01*
X005075Y008100D01*
X005075Y008900D01*
X005073Y008917D01*
X005069Y008934D01*
X005062Y008950D01*
X005052Y008964D01*
X005039Y008977D01*
X005025Y008987D01*
X005009Y008994D01*
X004992Y008998D01*
X004975Y009000D01*
X003275Y009000D01*
X003258Y008998D01*
X003241Y008994D01*
X003225Y008987D01*
X003211Y008977D01*
X003198Y008964D01*
X003188Y008950D01*
X003181Y008934D01*
X003177Y008917D01*
X003175Y008900D01*
X003175Y008100D01*
X003177Y008083D01*
X003181Y008066D01*
X003188Y008050D01*
X003198Y008036D01*
X003211Y008023D01*
X003225Y008013D01*
X003241Y008006D01*
X003258Y008002D01*
X003275Y008000D01*
X003975Y008500D02*
X004025Y008500D01*
X004225Y008500D02*
X004275Y008500D01*
X006175Y008900D02*
X006175Y008100D01*
X006177Y008083D01*
X006181Y008066D01*
X006188Y008050D01*
X006198Y008036D01*
X006211Y008023D01*
X006225Y008013D01*
X006241Y008006D01*
X006258Y008002D01*
X006275Y008000D01*
X007975Y008000D01*
X007992Y008002D01*
X008009Y008006D01*
X008025Y008013D01*
X008039Y008023D01*
X008052Y008036D01*
X008062Y008050D01*
X008069Y008066D01*
X008073Y008083D01*
X008075Y008100D01*
X008075Y008900D01*
X008073Y008917D01*
X008069Y008934D01*
X008062Y008950D01*
X008052Y008964D01*
X008039Y008977D01*
X008025Y008987D01*
X008009Y008994D01*
X007992Y008998D01*
X007975Y009000D01*
X006275Y009000D01*
X006258Y008998D01*
X006241Y008994D01*
X006225Y008987D01*
X006211Y008977D01*
X006198Y008964D01*
X006188Y008950D01*
X006181Y008934D01*
X006177Y008917D01*
X006175Y008900D01*
X006975Y008500D02*
X007025Y008500D01*
X007225Y008500D02*
X007275Y008500D01*
X009175Y008900D02*
X009175Y008100D01*
X009177Y008083D01*
X009181Y008066D01*
X009188Y008050D01*
X009198Y008036D01*
X009211Y008023D01*
X009225Y008013D01*
X009241Y008006D01*
X009258Y008002D01*
X009275Y008000D01*
X010975Y008000D01*
X010992Y008002D01*
X011009Y008006D01*
X011025Y008013D01*
X011039Y008023D01*
X011052Y008036D01*
X011062Y008050D01*
X011069Y008066D01*
X011073Y008083D01*
X011075Y008100D01*
X011075Y008900D01*
X011073Y008917D01*
X011069Y008934D01*
X011062Y008950D01*
X011052Y008964D01*
X011039Y008977D01*
X011025Y008987D01*
X011009Y008994D01*
X010992Y008998D01*
X010975Y009000D01*
X009275Y009000D01*
X009258Y008998D01*
X009241Y008994D01*
X009225Y008987D01*
X009211Y008977D01*
X009198Y008964D01*
X009188Y008950D01*
X009181Y008934D01*
X009177Y008917D01*
X009175Y008900D01*
X009975Y008500D02*
X010025Y008500D01*
X010225Y008500D02*
X010275Y008500D01*
X014175Y010100D02*
X014175Y010900D01*
X014177Y010917D01*
X014181Y010934D01*
X014188Y010950D01*
X014198Y010964D01*
X014211Y010977D01*
X014225Y010987D01*
X014241Y010994D01*
X014258Y010998D01*
X014275Y011000D01*
X015975Y011000D01*
X015992Y010998D01*
X016009Y010994D01*
X016025Y010987D01*
X016039Y010977D01*
X016052Y010964D01*
X016062Y010950D01*
X016069Y010934D01*
X016073Y010917D01*
X016075Y010900D01*
X016075Y010100D01*
X016073Y010083D01*
X016069Y010066D01*
X016062Y010050D01*
X016052Y010036D01*
X016039Y010023D01*
X016025Y010013D01*
X016009Y010006D01*
X015992Y010002D01*
X015975Y010000D01*
X014275Y010000D01*
X014258Y010002D01*
X014241Y010006D01*
X014225Y010013D01*
X014211Y010023D01*
X014198Y010036D01*
X014188Y010050D01*
X014181Y010066D01*
X014177Y010083D01*
X014175Y010100D01*
X014975Y010500D02*
X015025Y010500D01*
X015225Y010500D02*
X015275Y010500D01*
X010275Y016000D02*
X007975Y016000D01*
X007975Y023000D01*
X008725Y023000D01*
X008727Y022961D01*
X008733Y022922D01*
X008742Y022884D01*
X008755Y022847D01*
X008772Y022811D01*
X008792Y022778D01*
X008816Y022746D01*
X008842Y022717D01*
X008871Y022691D01*
X008903Y022667D01*
X008936Y022647D01*
X008972Y022630D01*
X009009Y022617D01*
X009047Y022608D01*
X009086Y022602D01*
X009125Y022600D01*
X009164Y022602D01*
X009203Y022608D01*
X009241Y022617D01*
X009278Y022630D01*
X009314Y022647D01*
X009347Y022667D01*
X009379Y022691D01*
X009408Y022717D01*
X009434Y022746D01*
X009458Y022778D01*
X009478Y022811D01*
X009495Y022847D01*
X009508Y022884D01*
X009517Y022922D01*
X009523Y022961D01*
X009525Y023000D01*
X010275Y023000D01*
X010275Y016000D01*
D11*
X015025Y010800D02*
X015025Y010500D01*
X015025Y010200D01*
X015225Y010200D02*
X015225Y010500D01*
X015225Y010800D01*
X010225Y008800D02*
X010225Y008500D01*
X010225Y008200D01*
X010025Y008200D02*
X010025Y008500D01*
X010025Y008800D01*
X007225Y008800D02*
X007225Y008500D01*
X007225Y008200D01*
X007025Y008200D02*
X007025Y008500D01*
X007025Y008800D01*
X004225Y008800D02*
X004225Y008500D01*
X004225Y008200D01*
X004025Y008200D02*
X004025Y008500D01*
X004025Y008800D01*
D12*
X003875Y006500D02*
X003375Y006500D01*
X003125Y006750D01*
X003125Y007250D01*
X003375Y007500D01*
X003875Y007500D01*
X004125Y007250D01*
X004375Y007500D01*
X004875Y007500D01*
X005125Y007250D01*
X005125Y006750D01*
X004875Y006500D01*
X004375Y006500D01*
X004125Y006750D01*
X003875Y006500D01*
X002875Y008000D02*
X002375Y008000D01*
X005125Y010250D02*
X005125Y010750D01*
X005375Y011000D01*
X005875Y011000D01*
X006125Y010750D01*
X006375Y011000D01*
X006875Y011000D01*
X007125Y010750D01*
X007375Y011000D01*
X007875Y011000D01*
X008125Y010750D01*
X008375Y011000D01*
X008875Y011000D01*
X009125Y010750D01*
X009375Y011000D01*
X009875Y011000D01*
X010125Y010750D01*
X010375Y011000D01*
X010875Y011000D01*
X011125Y010750D01*
X011375Y011000D01*
X011875Y011000D01*
X012125Y010750D01*
X012375Y011000D01*
X012875Y011000D01*
X013125Y010750D01*
X013125Y010250D01*
X012875Y010000D01*
X012375Y010000D01*
X012125Y010250D01*
X011875Y010000D01*
X011375Y010000D01*
X011125Y010250D01*
X010875Y010000D01*
X010375Y010000D01*
X010125Y010250D01*
X009875Y010000D01*
X009375Y010000D01*
X009125Y010250D01*
X008875Y010000D01*
X008375Y010000D01*
X008125Y010250D01*
X007875Y010000D01*
X007375Y010000D01*
X007125Y010250D01*
X006875Y010000D01*
X006375Y010000D01*
X006125Y010250D01*
X005875Y010000D01*
X005375Y010000D01*
X005125Y010250D01*
X003875Y011500D02*
X004125Y011750D01*
X004125Y012250D01*
X003875Y012500D01*
X004125Y012750D01*
X004125Y013250D01*
X003875Y013500D01*
X003375Y013500D01*
X003125Y013250D01*
X003125Y012750D01*
X003375Y012500D01*
X003125Y012250D01*
X003125Y011750D01*
X003375Y011500D01*
X003875Y011500D01*
X005375Y008000D02*
X005875Y008000D01*
X006375Y007500D02*
X006125Y007250D01*
X006125Y006750D01*
X006375Y006500D01*
X006875Y006500D01*
X007125Y006750D01*
X007375Y006500D01*
X007875Y006500D01*
X008125Y006750D01*
X008125Y007250D01*
X007875Y007500D01*
X007375Y007500D01*
X007125Y007250D01*
X006875Y007500D01*
X006375Y007500D01*
X008375Y008000D02*
X008875Y008000D01*
X009375Y007500D02*
X009125Y007250D01*
X009125Y006750D01*
X009375Y006500D01*
X009875Y006500D01*
X010125Y006750D01*
X010375Y006500D01*
X010875Y006500D01*
X011125Y006750D01*
X011125Y007250D01*
X010875Y007500D01*
X010375Y007500D01*
X010125Y007250D01*
X009875Y007500D01*
X009375Y007500D01*
X013375Y010000D02*
X013875Y010000D01*
X014375Y009500D02*
X014125Y009250D01*
X014125Y008750D01*
X014375Y008500D01*
X014875Y008500D01*
X015125Y008750D01*
X015375Y008500D01*
X015875Y008500D01*
X016125Y008750D01*
X016125Y009250D01*
X015875Y009500D01*
X015375Y009500D01*
X015125Y009250D01*
X014875Y009500D01*
X014375Y009500D01*
X014375Y025000D02*
X014125Y025250D01*
X013875Y025000D01*
X013375Y025000D01*
X013125Y025250D01*
X012875Y025000D01*
X012375Y025000D01*
X012125Y025250D01*
X011875Y025000D01*
X011375Y025000D01*
X011125Y025250D01*
X010875Y025000D01*
X010375Y025000D01*
X010125Y025250D01*
X009875Y025000D01*
X009375Y025000D01*
X009125Y025250D01*
X008875Y025000D01*
X008375Y025000D01*
X008125Y025250D01*
X007875Y025000D01*
X007375Y025000D01*
X007125Y025250D01*
X007125Y025750D01*
X007375Y026000D01*
X007875Y026000D01*
X008125Y025750D01*
X008375Y026000D01*
X008875Y026000D01*
X009125Y025750D01*
X009375Y026000D01*
X009875Y026000D01*
X010125Y025750D01*
X010375Y026000D01*
X010875Y026000D01*
X011125Y025750D01*
X011375Y026000D01*
X011875Y026000D01*
X012125Y025750D01*
X012375Y026000D01*
X012875Y026000D01*
X013125Y025750D01*
X013375Y026000D01*
X013875Y026000D01*
X014125Y025750D01*
X014375Y026000D01*
X014875Y026000D01*
X015125Y025750D01*
X015125Y025250D01*
X014875Y025000D01*
X014375Y025000D01*
D13*
X015360Y035811D02*
X015362Y035925D01*
X015368Y036039D01*
X015378Y036152D01*
X015392Y036265D01*
X015410Y036378D01*
X015431Y036490D01*
X015457Y036601D01*
X015486Y036711D01*
X015520Y036820D01*
X015557Y036928D01*
X015598Y037034D01*
X015642Y037139D01*
X015690Y037242D01*
X015742Y037344D01*
X015797Y037443D01*
X015856Y037541D01*
X015918Y037637D01*
X015984Y037730D01*
X016052Y037821D01*
X016124Y037910D01*
X016199Y037996D01*
X016276Y038079D01*
X016357Y038160D01*
X016440Y038237D01*
X016526Y038312D01*
X016615Y038384D01*
X016706Y038452D01*
X016799Y038518D01*
X016895Y038580D01*
X016992Y038639D01*
X017092Y038694D01*
X017194Y038746D01*
X017297Y038794D01*
X017402Y038838D01*
X017508Y038879D01*
X017616Y038916D01*
X017725Y038950D01*
X017835Y038979D01*
X017946Y039005D01*
X018058Y039026D01*
X018171Y039044D01*
X018284Y039058D01*
X018397Y039068D01*
X018511Y039074D01*
X018625Y039076D01*
X018739Y039074D01*
X018853Y039068D01*
X018966Y039058D01*
X019079Y039044D01*
X019192Y039026D01*
X019304Y039005D01*
X019415Y038979D01*
X019525Y038950D01*
X019634Y038916D01*
X019742Y038879D01*
X019848Y038838D01*
X019953Y038794D01*
X020056Y038746D01*
X020158Y038694D01*
X020257Y038639D01*
X020355Y038580D01*
X020451Y038518D01*
X020544Y038452D01*
X020635Y038384D01*
X020724Y038312D01*
X020810Y038237D01*
X020893Y038160D01*
X020974Y038079D01*
X021051Y037996D01*
X021126Y037910D01*
X021198Y037821D01*
X021266Y037730D01*
X021332Y037637D01*
X021394Y037541D01*
X021453Y037443D01*
X021508Y037344D01*
X021560Y037242D01*
X021608Y037139D01*
X021652Y037034D01*
X021693Y036928D01*
X021730Y036820D01*
X021764Y036711D01*
X021793Y036601D01*
X021819Y036490D01*
X021840Y036378D01*
X021858Y036265D01*
X021872Y036152D01*
X021882Y036039D01*
X021888Y035925D01*
X021890Y035811D01*
X021888Y035697D01*
X021882Y035583D01*
X021872Y035470D01*
X021858Y035357D01*
X021840Y035244D01*
X021819Y035132D01*
X021793Y035021D01*
X021764Y034911D01*
X021730Y034802D01*
X021693Y034694D01*
X021652Y034588D01*
X021608Y034483D01*
X021560Y034380D01*
X021508Y034278D01*
X021453Y034178D01*
X021394Y034081D01*
X021332Y033985D01*
X021266Y033892D01*
X021198Y033801D01*
X021126Y033712D01*
X021051Y033626D01*
X020974Y033543D01*
X020893Y033462D01*
X020810Y033385D01*
X020724Y033310D01*
X020635Y033238D01*
X020544Y033170D01*
X020451Y033104D01*
X020355Y033042D01*
X020258Y032983D01*
X020158Y032928D01*
X020056Y032876D01*
X019953Y032828D01*
X019848Y032784D01*
X019742Y032743D01*
X019634Y032706D01*
X019525Y032672D01*
X019415Y032643D01*
X019304Y032617D01*
X019192Y032596D01*
X019079Y032578D01*
X018966Y032564D01*
X018853Y032554D01*
X018739Y032548D01*
X018625Y032546D01*
X018511Y032548D01*
X018397Y032554D01*
X018284Y032564D01*
X018171Y032578D01*
X018058Y032596D01*
X017946Y032617D01*
X017835Y032643D01*
X017725Y032672D01*
X017616Y032706D01*
X017508Y032743D01*
X017402Y032784D01*
X017297Y032828D01*
X017194Y032876D01*
X017092Y032928D01*
X016992Y032983D01*
X016895Y033042D01*
X016799Y033104D01*
X016706Y033170D01*
X016615Y033238D01*
X016526Y033310D01*
X016440Y033385D01*
X016357Y033462D01*
X016276Y033543D01*
X016199Y033626D01*
X016124Y033712D01*
X016052Y033801D01*
X015984Y033892D01*
X015918Y033985D01*
X015856Y034081D01*
X015797Y034178D01*
X015742Y034278D01*
X015690Y034380D01*
X015642Y034483D01*
X015598Y034588D01*
X015557Y034694D01*
X015520Y034802D01*
X015486Y034911D01*
X015457Y035021D01*
X015431Y035132D01*
X015410Y035244D01*
X015392Y035357D01*
X015378Y035470D01*
X015368Y035583D01*
X015362Y035697D01*
X015360Y035811D01*
X017286Y035917D02*
X017288Y035990D01*
X017294Y036063D01*
X017304Y036135D01*
X017318Y036207D01*
X017336Y036278D01*
X017357Y036348D01*
X017383Y036417D01*
X017412Y036484D01*
X017445Y036549D01*
X017481Y036613D01*
X017521Y036674D01*
X017564Y036733D01*
X017610Y036790D01*
X017659Y036844D01*
X017711Y036896D01*
X017766Y036944D01*
X017823Y036989D01*
X017883Y037032D01*
X017945Y037070D01*
X018009Y037106D01*
X018075Y037138D01*
X018142Y037166D01*
X018211Y037190D01*
X018281Y037211D01*
X018353Y037228D01*
X018425Y037241D01*
X018497Y037250D01*
X018570Y037255D01*
X018643Y037256D01*
X018716Y037253D01*
X018789Y037246D01*
X018862Y037235D01*
X018933Y037220D01*
X019004Y037201D01*
X019073Y037179D01*
X019142Y037152D01*
X019208Y037122D01*
X019273Y037089D01*
X019336Y037051D01*
X019397Y037011D01*
X019456Y036967D01*
X019512Y036920D01*
X019565Y036870D01*
X019616Y036817D01*
X019664Y036762D01*
X019708Y036704D01*
X019750Y036644D01*
X019788Y036581D01*
X019822Y036517D01*
X019853Y036450D01*
X019880Y036383D01*
X019904Y036313D01*
X019924Y036243D01*
X019940Y036171D01*
X019952Y036099D01*
X019960Y036027D01*
X019964Y035954D01*
X019964Y035880D01*
X019960Y035807D01*
X019952Y035735D01*
X019940Y035663D01*
X019924Y035591D01*
X019904Y035521D01*
X019880Y035451D01*
X019853Y035384D01*
X019822Y035317D01*
X019788Y035253D01*
X019750Y035190D01*
X019708Y035130D01*
X019664Y035072D01*
X019616Y035017D01*
X019565Y034964D01*
X019512Y034914D01*
X019456Y034867D01*
X019397Y034823D01*
X019336Y034783D01*
X019273Y034745D01*
X019208Y034712D01*
X019142Y034682D01*
X019073Y034655D01*
X019004Y034633D01*
X018933Y034614D01*
X018862Y034599D01*
X018789Y034588D01*
X018716Y034581D01*
X018643Y034578D01*
X018570Y034579D01*
X018497Y034584D01*
X018425Y034593D01*
X018353Y034606D01*
X018281Y034623D01*
X018211Y034644D01*
X018142Y034668D01*
X018075Y034696D01*
X018009Y034728D01*
X017945Y034764D01*
X017883Y034802D01*
X017823Y034845D01*
X017766Y034890D01*
X017711Y034938D01*
X017659Y034990D01*
X017610Y035044D01*
X017564Y035101D01*
X017521Y035160D01*
X017481Y035221D01*
X017445Y035285D01*
X017412Y035350D01*
X017383Y035417D01*
X017357Y035486D01*
X017336Y035556D01*
X017318Y035627D01*
X017304Y035699D01*
X017294Y035771D01*
X017288Y035844D01*
X017286Y035917D01*
X008610Y036061D02*
X008612Y036175D01*
X008618Y036289D01*
X008628Y036402D01*
X008642Y036515D01*
X008660Y036628D01*
X008681Y036740D01*
X008707Y036851D01*
X008736Y036961D01*
X008770Y037070D01*
X008807Y037178D01*
X008848Y037284D01*
X008892Y037389D01*
X008940Y037492D01*
X008992Y037594D01*
X009047Y037693D01*
X009106Y037791D01*
X009168Y037887D01*
X009234Y037980D01*
X009302Y038071D01*
X009374Y038160D01*
X009449Y038246D01*
X009526Y038329D01*
X009607Y038410D01*
X009690Y038487D01*
X009776Y038562D01*
X009865Y038634D01*
X009956Y038702D01*
X010049Y038768D01*
X010145Y038830D01*
X010242Y038889D01*
X010342Y038944D01*
X010444Y038996D01*
X010547Y039044D01*
X010652Y039088D01*
X010758Y039129D01*
X010866Y039166D01*
X010975Y039200D01*
X011085Y039229D01*
X011196Y039255D01*
X011308Y039276D01*
X011421Y039294D01*
X011534Y039308D01*
X011647Y039318D01*
X011761Y039324D01*
X011875Y039326D01*
X011989Y039324D01*
X012103Y039318D01*
X012216Y039308D01*
X012329Y039294D01*
X012442Y039276D01*
X012554Y039255D01*
X012665Y039229D01*
X012775Y039200D01*
X012884Y039166D01*
X012992Y039129D01*
X013098Y039088D01*
X013203Y039044D01*
X013306Y038996D01*
X013408Y038944D01*
X013507Y038889D01*
X013605Y038830D01*
X013701Y038768D01*
X013794Y038702D01*
X013885Y038634D01*
X013974Y038562D01*
X014060Y038487D01*
X014143Y038410D01*
X014224Y038329D01*
X014301Y038246D01*
X014376Y038160D01*
X014448Y038071D01*
X014516Y037980D01*
X014582Y037887D01*
X014644Y037791D01*
X014703Y037693D01*
X014758Y037594D01*
X014810Y037492D01*
X014858Y037389D01*
X014902Y037284D01*
X014943Y037178D01*
X014980Y037070D01*
X015014Y036961D01*
X015043Y036851D01*
X015069Y036740D01*
X015090Y036628D01*
X015108Y036515D01*
X015122Y036402D01*
X015132Y036289D01*
X015138Y036175D01*
X015140Y036061D01*
X015138Y035947D01*
X015132Y035833D01*
X015122Y035720D01*
X015108Y035607D01*
X015090Y035494D01*
X015069Y035382D01*
X015043Y035271D01*
X015014Y035161D01*
X014980Y035052D01*
X014943Y034944D01*
X014902Y034838D01*
X014858Y034733D01*
X014810Y034630D01*
X014758Y034528D01*
X014703Y034428D01*
X014644Y034331D01*
X014582Y034235D01*
X014516Y034142D01*
X014448Y034051D01*
X014376Y033962D01*
X014301Y033876D01*
X014224Y033793D01*
X014143Y033712D01*
X014060Y033635D01*
X013974Y033560D01*
X013885Y033488D01*
X013794Y033420D01*
X013701Y033354D01*
X013605Y033292D01*
X013508Y033233D01*
X013408Y033178D01*
X013306Y033126D01*
X013203Y033078D01*
X013098Y033034D01*
X012992Y032993D01*
X012884Y032956D01*
X012775Y032922D01*
X012665Y032893D01*
X012554Y032867D01*
X012442Y032846D01*
X012329Y032828D01*
X012216Y032814D01*
X012103Y032804D01*
X011989Y032798D01*
X011875Y032796D01*
X011761Y032798D01*
X011647Y032804D01*
X011534Y032814D01*
X011421Y032828D01*
X011308Y032846D01*
X011196Y032867D01*
X011085Y032893D01*
X010975Y032922D01*
X010866Y032956D01*
X010758Y032993D01*
X010652Y033034D01*
X010547Y033078D01*
X010444Y033126D01*
X010342Y033178D01*
X010242Y033233D01*
X010145Y033292D01*
X010049Y033354D01*
X009956Y033420D01*
X009865Y033488D01*
X009776Y033560D01*
X009690Y033635D01*
X009607Y033712D01*
X009526Y033793D01*
X009449Y033876D01*
X009374Y033962D01*
X009302Y034051D01*
X009234Y034142D01*
X009168Y034235D01*
X009106Y034331D01*
X009047Y034428D01*
X008992Y034528D01*
X008940Y034630D01*
X008892Y034733D01*
X008848Y034838D01*
X008807Y034944D01*
X008770Y035052D01*
X008736Y035161D01*
X008707Y035271D01*
X008681Y035382D01*
X008660Y035494D01*
X008642Y035607D01*
X008628Y035720D01*
X008618Y035833D01*
X008612Y035947D01*
X008610Y036061D01*
X010536Y036167D02*
X010538Y036240D01*
X010544Y036313D01*
X010554Y036385D01*
X010568Y036457D01*
X010586Y036528D01*
X010607Y036598D01*
X010633Y036667D01*
X010662Y036734D01*
X010695Y036799D01*
X010731Y036863D01*
X010771Y036924D01*
X010814Y036983D01*
X010860Y037040D01*
X010909Y037094D01*
X010961Y037146D01*
X011016Y037194D01*
X011073Y037239D01*
X011133Y037282D01*
X011195Y037320D01*
X011259Y037356D01*
X011325Y037388D01*
X011392Y037416D01*
X011461Y037440D01*
X011531Y037461D01*
X011603Y037478D01*
X011675Y037491D01*
X011747Y037500D01*
X011820Y037505D01*
X011893Y037506D01*
X011966Y037503D01*
X012039Y037496D01*
X012112Y037485D01*
X012183Y037470D01*
X012254Y037451D01*
X012323Y037429D01*
X012392Y037402D01*
X012458Y037372D01*
X012523Y037339D01*
X012586Y037301D01*
X012647Y037261D01*
X012706Y037217D01*
X012762Y037170D01*
X012815Y037120D01*
X012866Y037067D01*
X012914Y037012D01*
X012958Y036954D01*
X013000Y036894D01*
X013038Y036831D01*
X013072Y036767D01*
X013103Y036700D01*
X013130Y036633D01*
X013154Y036563D01*
X013174Y036493D01*
X013190Y036421D01*
X013202Y036349D01*
X013210Y036277D01*
X013214Y036204D01*
X013214Y036130D01*
X013210Y036057D01*
X013202Y035985D01*
X013190Y035913D01*
X013174Y035841D01*
X013154Y035771D01*
X013130Y035701D01*
X013103Y035634D01*
X013072Y035567D01*
X013038Y035503D01*
X013000Y035440D01*
X012958Y035380D01*
X012914Y035322D01*
X012866Y035267D01*
X012815Y035214D01*
X012762Y035164D01*
X012706Y035117D01*
X012647Y035073D01*
X012586Y035033D01*
X012523Y034995D01*
X012458Y034962D01*
X012392Y034932D01*
X012323Y034905D01*
X012254Y034883D01*
X012183Y034864D01*
X012112Y034849D01*
X012039Y034838D01*
X011966Y034831D01*
X011893Y034828D01*
X011820Y034829D01*
X011747Y034834D01*
X011675Y034843D01*
X011603Y034856D01*
X011531Y034873D01*
X011461Y034894D01*
X011392Y034918D01*
X011325Y034946D01*
X011259Y034978D01*
X011195Y035014D01*
X011133Y035052D01*
X011073Y035095D01*
X011016Y035140D01*
X010961Y035188D01*
X010909Y035240D01*
X010860Y035294D01*
X010814Y035351D01*
X010771Y035410D01*
X010731Y035471D01*
X010695Y035535D01*
X010662Y035600D01*
X010633Y035667D01*
X010607Y035736D01*
X010586Y035806D01*
X010568Y035877D01*
X010554Y035949D01*
X010544Y036021D01*
X010538Y036094D01*
X010536Y036167D01*
X003786Y035917D02*
X003788Y035990D01*
X003794Y036063D01*
X003804Y036135D01*
X003818Y036207D01*
X003836Y036278D01*
X003857Y036348D01*
X003883Y036417D01*
X003912Y036484D01*
X003945Y036549D01*
X003981Y036613D01*
X004021Y036674D01*
X004064Y036733D01*
X004110Y036790D01*
X004159Y036844D01*
X004211Y036896D01*
X004266Y036944D01*
X004323Y036989D01*
X004383Y037032D01*
X004445Y037070D01*
X004509Y037106D01*
X004575Y037138D01*
X004642Y037166D01*
X004711Y037190D01*
X004781Y037211D01*
X004853Y037228D01*
X004925Y037241D01*
X004997Y037250D01*
X005070Y037255D01*
X005143Y037256D01*
X005216Y037253D01*
X005289Y037246D01*
X005362Y037235D01*
X005433Y037220D01*
X005504Y037201D01*
X005573Y037179D01*
X005642Y037152D01*
X005708Y037122D01*
X005773Y037089D01*
X005836Y037051D01*
X005897Y037011D01*
X005956Y036967D01*
X006012Y036920D01*
X006065Y036870D01*
X006116Y036817D01*
X006164Y036762D01*
X006208Y036704D01*
X006250Y036644D01*
X006288Y036581D01*
X006322Y036517D01*
X006353Y036450D01*
X006380Y036383D01*
X006404Y036313D01*
X006424Y036243D01*
X006440Y036171D01*
X006452Y036099D01*
X006460Y036027D01*
X006464Y035954D01*
X006464Y035880D01*
X006460Y035807D01*
X006452Y035735D01*
X006440Y035663D01*
X006424Y035591D01*
X006404Y035521D01*
X006380Y035451D01*
X006353Y035384D01*
X006322Y035317D01*
X006288Y035253D01*
X006250Y035190D01*
X006208Y035130D01*
X006164Y035072D01*
X006116Y035017D01*
X006065Y034964D01*
X006012Y034914D01*
X005956Y034867D01*
X005897Y034823D01*
X005836Y034783D01*
X005773Y034745D01*
X005708Y034712D01*
X005642Y034682D01*
X005573Y034655D01*
X005504Y034633D01*
X005433Y034614D01*
X005362Y034599D01*
X005289Y034588D01*
X005216Y034581D01*
X005143Y034578D01*
X005070Y034579D01*
X004997Y034584D01*
X004925Y034593D01*
X004853Y034606D01*
X004781Y034623D01*
X004711Y034644D01*
X004642Y034668D01*
X004575Y034696D01*
X004509Y034728D01*
X004445Y034764D01*
X004383Y034802D01*
X004323Y034845D01*
X004266Y034890D01*
X004211Y034938D01*
X004159Y034990D01*
X004110Y035044D01*
X004064Y035101D01*
X004021Y035160D01*
X003981Y035221D01*
X003945Y035285D01*
X003912Y035350D01*
X003883Y035417D01*
X003857Y035486D01*
X003836Y035556D01*
X003818Y035627D01*
X003804Y035699D01*
X003794Y035771D01*
X003788Y035844D01*
X003786Y035917D01*
X001860Y035811D02*
X001862Y035925D01*
X001868Y036039D01*
X001878Y036152D01*
X001892Y036265D01*
X001910Y036378D01*
X001931Y036490D01*
X001957Y036601D01*
X001986Y036711D01*
X002020Y036820D01*
X002057Y036928D01*
X002098Y037034D01*
X002142Y037139D01*
X002190Y037242D01*
X002242Y037344D01*
X002297Y037443D01*
X002356Y037541D01*
X002418Y037637D01*
X002484Y037730D01*
X002552Y037821D01*
X002624Y037910D01*
X002699Y037996D01*
X002776Y038079D01*
X002857Y038160D01*
X002940Y038237D01*
X003026Y038312D01*
X003115Y038384D01*
X003206Y038452D01*
X003299Y038518D01*
X003395Y038580D01*
X003492Y038639D01*
X003592Y038694D01*
X003694Y038746D01*
X003797Y038794D01*
X003902Y038838D01*
X004008Y038879D01*
X004116Y038916D01*
X004225Y038950D01*
X004335Y038979D01*
X004446Y039005D01*
X004558Y039026D01*
X004671Y039044D01*
X004784Y039058D01*
X004897Y039068D01*
X005011Y039074D01*
X005125Y039076D01*
X005239Y039074D01*
X005353Y039068D01*
X005466Y039058D01*
X005579Y039044D01*
X005692Y039026D01*
X005804Y039005D01*
X005915Y038979D01*
X006025Y038950D01*
X006134Y038916D01*
X006242Y038879D01*
X006348Y038838D01*
X006453Y038794D01*
X006556Y038746D01*
X006658Y038694D01*
X006757Y038639D01*
X006855Y038580D01*
X006951Y038518D01*
X007044Y038452D01*
X007135Y038384D01*
X007224Y038312D01*
X007310Y038237D01*
X007393Y038160D01*
X007474Y038079D01*
X007551Y037996D01*
X007626Y037910D01*
X007698Y037821D01*
X007766Y037730D01*
X007832Y037637D01*
X007894Y037541D01*
X007953Y037443D01*
X008008Y037344D01*
X008060Y037242D01*
X008108Y037139D01*
X008152Y037034D01*
X008193Y036928D01*
X008230Y036820D01*
X008264Y036711D01*
X008293Y036601D01*
X008319Y036490D01*
X008340Y036378D01*
X008358Y036265D01*
X008372Y036152D01*
X008382Y036039D01*
X008388Y035925D01*
X008390Y035811D01*
X008388Y035697D01*
X008382Y035583D01*
X008372Y035470D01*
X008358Y035357D01*
X008340Y035244D01*
X008319Y035132D01*
X008293Y035021D01*
X008264Y034911D01*
X008230Y034802D01*
X008193Y034694D01*
X008152Y034588D01*
X008108Y034483D01*
X008060Y034380D01*
X008008Y034278D01*
X007953Y034178D01*
X007894Y034081D01*
X007832Y033985D01*
X007766Y033892D01*
X007698Y033801D01*
X007626Y033712D01*
X007551Y033626D01*
X007474Y033543D01*
X007393Y033462D01*
X007310Y033385D01*
X007224Y033310D01*
X007135Y033238D01*
X007044Y033170D01*
X006951Y033104D01*
X006855Y033042D01*
X006758Y032983D01*
X006658Y032928D01*
X006556Y032876D01*
X006453Y032828D01*
X006348Y032784D01*
X006242Y032743D01*
X006134Y032706D01*
X006025Y032672D01*
X005915Y032643D01*
X005804Y032617D01*
X005692Y032596D01*
X005579Y032578D01*
X005466Y032564D01*
X005353Y032554D01*
X005239Y032548D01*
X005125Y032546D01*
X005011Y032548D01*
X004897Y032554D01*
X004784Y032564D01*
X004671Y032578D01*
X004558Y032596D01*
X004446Y032617D01*
X004335Y032643D01*
X004225Y032672D01*
X004116Y032706D01*
X004008Y032743D01*
X003902Y032784D01*
X003797Y032828D01*
X003694Y032876D01*
X003592Y032928D01*
X003492Y032983D01*
X003395Y033042D01*
X003299Y033104D01*
X003206Y033170D01*
X003115Y033238D01*
X003026Y033310D01*
X002940Y033385D01*
X002857Y033462D01*
X002776Y033543D01*
X002699Y033626D01*
X002624Y033712D01*
X002552Y033801D01*
X002484Y033892D01*
X002418Y033985D01*
X002356Y034081D01*
X002297Y034178D01*
X002242Y034278D01*
X002190Y034380D01*
X002142Y034483D01*
X002098Y034588D01*
X002057Y034694D01*
X002020Y034802D01*
X001986Y034911D01*
X001957Y035021D01*
X001931Y035132D01*
X001910Y035244D01*
X001892Y035357D01*
X001878Y035470D01*
X001868Y035583D01*
X001862Y035697D01*
X001860Y035811D01*
X022360Y035811D02*
X022362Y035925D01*
X022368Y036039D01*
X022378Y036152D01*
X022392Y036265D01*
X022410Y036378D01*
X022431Y036490D01*
X022457Y036601D01*
X022486Y036711D01*
X022520Y036820D01*
X022557Y036928D01*
X022598Y037034D01*
X022642Y037139D01*
X022690Y037242D01*
X022742Y037344D01*
X022797Y037443D01*
X022856Y037541D01*
X022918Y037637D01*
X022984Y037730D01*
X023052Y037821D01*
X023124Y037910D01*
X023199Y037996D01*
X023276Y038079D01*
X023357Y038160D01*
X023440Y038237D01*
X023526Y038312D01*
X023615Y038384D01*
X023706Y038452D01*
X023799Y038518D01*
X023895Y038580D01*
X023992Y038639D01*
X024092Y038694D01*
X024194Y038746D01*
X024297Y038794D01*
X024402Y038838D01*
X024508Y038879D01*
X024616Y038916D01*
X024725Y038950D01*
X024835Y038979D01*
X024946Y039005D01*
X025058Y039026D01*
X025171Y039044D01*
X025284Y039058D01*
X025397Y039068D01*
X025511Y039074D01*
X025625Y039076D01*
X025739Y039074D01*
X025853Y039068D01*
X025966Y039058D01*
X026079Y039044D01*
X026192Y039026D01*
X026304Y039005D01*
X026415Y038979D01*
X026525Y038950D01*
X026634Y038916D01*
X026742Y038879D01*
X026848Y038838D01*
X026953Y038794D01*
X027056Y038746D01*
X027158Y038694D01*
X027257Y038639D01*
X027355Y038580D01*
X027451Y038518D01*
X027544Y038452D01*
X027635Y038384D01*
X027724Y038312D01*
X027810Y038237D01*
X027893Y038160D01*
X027974Y038079D01*
X028051Y037996D01*
X028126Y037910D01*
X028198Y037821D01*
X028266Y037730D01*
X028332Y037637D01*
X028394Y037541D01*
X028453Y037443D01*
X028508Y037344D01*
X028560Y037242D01*
X028608Y037139D01*
X028652Y037034D01*
X028693Y036928D01*
X028730Y036820D01*
X028764Y036711D01*
X028793Y036601D01*
X028819Y036490D01*
X028840Y036378D01*
X028858Y036265D01*
X028872Y036152D01*
X028882Y036039D01*
X028888Y035925D01*
X028890Y035811D01*
X028888Y035697D01*
X028882Y035583D01*
X028872Y035470D01*
X028858Y035357D01*
X028840Y035244D01*
X028819Y035132D01*
X028793Y035021D01*
X028764Y034911D01*
X028730Y034802D01*
X028693Y034694D01*
X028652Y034588D01*
X028608Y034483D01*
X028560Y034380D01*
X028508Y034278D01*
X028453Y034178D01*
X028394Y034081D01*
X028332Y033985D01*
X028266Y033892D01*
X028198Y033801D01*
X028126Y033712D01*
X028051Y033626D01*
X027974Y033543D01*
X027893Y033462D01*
X027810Y033385D01*
X027724Y033310D01*
X027635Y033238D01*
X027544Y033170D01*
X027451Y033104D01*
X027355Y033042D01*
X027258Y032983D01*
X027158Y032928D01*
X027056Y032876D01*
X026953Y032828D01*
X026848Y032784D01*
X026742Y032743D01*
X026634Y032706D01*
X026525Y032672D01*
X026415Y032643D01*
X026304Y032617D01*
X026192Y032596D01*
X026079Y032578D01*
X025966Y032564D01*
X025853Y032554D01*
X025739Y032548D01*
X025625Y032546D01*
X025511Y032548D01*
X025397Y032554D01*
X025284Y032564D01*
X025171Y032578D01*
X025058Y032596D01*
X024946Y032617D01*
X024835Y032643D01*
X024725Y032672D01*
X024616Y032706D01*
X024508Y032743D01*
X024402Y032784D01*
X024297Y032828D01*
X024194Y032876D01*
X024092Y032928D01*
X023992Y032983D01*
X023895Y033042D01*
X023799Y033104D01*
X023706Y033170D01*
X023615Y033238D01*
X023526Y033310D01*
X023440Y033385D01*
X023357Y033462D01*
X023276Y033543D01*
X023199Y033626D01*
X023124Y033712D01*
X023052Y033801D01*
X022984Y033892D01*
X022918Y033985D01*
X022856Y034081D01*
X022797Y034178D01*
X022742Y034278D01*
X022690Y034380D01*
X022642Y034483D01*
X022598Y034588D01*
X022557Y034694D01*
X022520Y034802D01*
X022486Y034911D01*
X022457Y035021D01*
X022431Y035132D01*
X022410Y035244D01*
X022392Y035357D01*
X022378Y035470D01*
X022368Y035583D01*
X022362Y035697D01*
X022360Y035811D01*
X024286Y035917D02*
X024288Y035990D01*
X024294Y036063D01*
X024304Y036135D01*
X024318Y036207D01*
X024336Y036278D01*
X024357Y036348D01*
X024383Y036417D01*
X024412Y036484D01*
X024445Y036549D01*
X024481Y036613D01*
X024521Y036674D01*
X024564Y036733D01*
X024610Y036790D01*
X024659Y036844D01*
X024711Y036896D01*
X024766Y036944D01*
X024823Y036989D01*
X024883Y037032D01*
X024945Y037070D01*
X025009Y037106D01*
X025075Y037138D01*
X025142Y037166D01*
X025211Y037190D01*
X025281Y037211D01*
X025353Y037228D01*
X025425Y037241D01*
X025497Y037250D01*
X025570Y037255D01*
X025643Y037256D01*
X025716Y037253D01*
X025789Y037246D01*
X025862Y037235D01*
X025933Y037220D01*
X026004Y037201D01*
X026073Y037179D01*
X026142Y037152D01*
X026208Y037122D01*
X026273Y037089D01*
X026336Y037051D01*
X026397Y037011D01*
X026456Y036967D01*
X026512Y036920D01*
X026565Y036870D01*
X026616Y036817D01*
X026664Y036762D01*
X026708Y036704D01*
X026750Y036644D01*
X026788Y036581D01*
X026822Y036517D01*
X026853Y036450D01*
X026880Y036383D01*
X026904Y036313D01*
X026924Y036243D01*
X026940Y036171D01*
X026952Y036099D01*
X026960Y036027D01*
X026964Y035954D01*
X026964Y035880D01*
X026960Y035807D01*
X026952Y035735D01*
X026940Y035663D01*
X026924Y035591D01*
X026904Y035521D01*
X026880Y035451D01*
X026853Y035384D01*
X026822Y035317D01*
X026788Y035253D01*
X026750Y035190D01*
X026708Y035130D01*
X026664Y035072D01*
X026616Y035017D01*
X026565Y034964D01*
X026512Y034914D01*
X026456Y034867D01*
X026397Y034823D01*
X026336Y034783D01*
X026273Y034745D01*
X026208Y034712D01*
X026142Y034682D01*
X026073Y034655D01*
X026004Y034633D01*
X025933Y034614D01*
X025862Y034599D01*
X025789Y034588D01*
X025716Y034581D01*
X025643Y034578D01*
X025570Y034579D01*
X025497Y034584D01*
X025425Y034593D01*
X025353Y034606D01*
X025281Y034623D01*
X025211Y034644D01*
X025142Y034668D01*
X025075Y034696D01*
X025009Y034728D01*
X024945Y034764D01*
X024883Y034802D01*
X024823Y034845D01*
X024766Y034890D01*
X024711Y034938D01*
X024659Y034990D01*
X024610Y035044D01*
X024564Y035101D01*
X024521Y035160D01*
X024481Y035221D01*
X024445Y035285D01*
X024412Y035350D01*
X024383Y035417D01*
X024357Y035486D01*
X024336Y035556D01*
X024318Y035627D01*
X024304Y035699D01*
X024294Y035771D01*
X024288Y035844D01*
X024286Y035917D01*
X013649Y008811D02*
X013216Y008811D01*
X013649Y008811D02*
X013649Y005701D01*
X013373Y005701D01*
X013373Y004520D01*
X011956Y004520D01*
X011956Y005701D01*
X013373Y005701D01*
X011956Y005701D02*
X011641Y005701D01*
X011641Y008654D01*
X011641Y008811D01*
X012034Y008811D01*
X011641Y008732D02*
X011641Y008654D01*
M02*
